<svg width="92" height="92" viewBox="0 0 92 92" fill="none" xmlns="http://www.w3.org/2000/svg">
<circle cx="46" cy="46" r="45.5" stroke="url(#paint0_linear_435_375)" stroke-dasharray="2 2"/>
<path d="M58.8571 47.5714H48.1429V57.9286C48.1429 58.4779 47.9171 59.0048 47.5152 59.3933C47.1134 59.7818 46.5683 60 46 60C45.4317 60 44.8866 59.7818 44.4848 59.3933C44.0829 59.0048 43.8571 58.4779 43.8571 57.9286V47.5714H33.1429C32.5745 47.5714 32.0295 47.3532 31.6276 46.9647C31.2258 46.5763 31 46.0494 31 45.5C31 44.9506 31.2258 44.4237 31.6276 44.0353C32.0295 43.6468 32.5745 43.4286 33.1429 43.4286H43.8571V33.0714C43.8571 32.5221 44.0829 31.9952 44.4848 31.6067C44.8866 31.2182 45.4317 31 46 31C46.5683 31 47.1134 31.2182 47.5152 31.6067C47.9171 31.9952 48.1429 32.5221 48.1429 33.0714V43.4286H58.8571C59.4255 43.4286 59.9705 43.6468 60.3724 44.0353C60.7742 44.4237 61 44.9506 61 45.5C61 46.0494 60.7742 46.5763 60.3724 46.9647C59.9705 47.3532 59.4255 47.5714 58.8571 47.5714Z" fill="#EC7404"/>
<defs>
<linearGradient id="paint0_linear_435_375" x1="5.72021" y1="3.91926" x2="101.299" y2="18.7482" gradientUnits="userSpaceOnUse">
<stop stop-color="#EC7404"/>
<stop offset="1" stop-color="#FF9838" stop-opacity="0.85"/>
</linearGradient>
</defs>
</svg>
