<svg width="53" height="53" viewBox="0 0 53 53" fill="none" xmlns="http://www.w3.org/2000/svg">
<path d="M37.5417 46.375H15.4584C6.62508 46.375 4.41675 44.1667 4.41675 35.3333V17.6667C4.41675 8.83333 6.62508 6.625 15.4584 6.625H37.5417C46.3751 6.625 48.5834 8.83333 48.5834 17.6667V35.3333C48.5834 44.1667 46.3751 46.375 37.5417 46.375Z" stroke="#333333" stroke-width="1.5" stroke-linecap="round" stroke-linejoin="round"/>
<path d="M30.9167 17.6667H41.9584" stroke="#333333" stroke-width="1.5" stroke-linecap="round" stroke-linejoin="round"/>
<path d="M33.125 26.5H41.9583" stroke="#333333" stroke-width="1.5" stroke-linecap="round" stroke-linejoin="round"/>
<path d="M37.5417 35.3333H41.9584" stroke="#333333" stroke-width="1.5" stroke-linecap="round" stroke-linejoin="round"/>
<path d="M18.7708 24.9322C20.9783 24.9322 22.7678 23.1426 22.7678 20.9351C22.7678 18.7275 20.9783 16.938 18.7708 16.938C16.5632 16.938 14.7737 18.7275 14.7737 20.9351C14.7737 23.1426 16.5632 24.9322 18.7708 24.9322Z" stroke="#333333" stroke-width="1.5" stroke-linecap="round" stroke-linejoin="round"/>
<path d="M26.5001 36.0621C26.1909 32.8601 23.6513 30.3426 20.4492 30.0555C19.3451 29.9451 18.2188 29.9451 17.0926 30.0555C13.8905 30.3646 11.3509 32.8601 11.0417 36.0621" stroke="#333333" stroke-width="1.5" stroke-linecap="round" stroke-linejoin="round"/>
</svg>
