<svg width="67" height="67" viewBox="0 0 67 67" fill="none" xmlns="http://www.w3.org/2000/svg">
<path d="M23.3938 33.5001L30.1218 40.2559L43.6055 26.7442" stroke="#252322" stroke-width="4.1875" stroke-linecap="round" stroke-linejoin="round"/>
<path d="M30.0101 6.83961C31.9363 5.19252 35.0909 5.19252 37.0451 6.83961L41.4559 10.6363C42.2934 11.3621 43.8568 11.9484 44.9734 11.9484H49.7193C52.6784 11.9484 55.1072 14.3771 55.1072 17.3363V22.0821C55.1072 23.1709 55.6934 24.7621 56.4193 25.5996L60.2159 30.0104C61.863 31.9367 61.863 35.0913 60.2159 37.0454L56.4193 41.4563C55.6934 42.2938 55.1072 43.8571 55.1072 44.9738V49.7196C55.1072 52.6788 52.6784 55.1075 49.7193 55.1075H44.9734C43.8847 55.1075 42.2934 55.6938 41.4559 56.4196L37.0451 60.2163C35.1188 61.8634 31.9643 61.8634 30.0101 60.2163L25.5993 56.4196C24.7618 55.6938 23.1984 55.1075 22.0818 55.1075H17.2522C14.293 55.1075 11.8643 52.6788 11.8643 49.7196V44.9459C11.8643 43.8571 11.278 42.2938 10.5801 41.4563L6.81134 37.0175C5.19217 35.0913 5.19217 31.9646 6.81134 30.0384L10.5801 25.5996C11.278 24.7621 11.8643 23.1988 11.8643 22.11V17.3084C11.8643 14.3492 14.293 11.9204 17.2522 11.9204H22.0818C23.1705 11.9204 24.7618 11.3342 25.5993 10.6084L30.0101 6.83961Z" stroke="#252322" stroke-width="4.1875" stroke-linecap="round" stroke-linejoin="round"/>
</svg>
