<svg width="51" height="51" viewBox="0 0 51 51" fill="none" xmlns="http://www.w3.org/2000/svg">
<path d="M20.1875 29.2187C20.1875 31.28 21.7813 32.9375 23.7363 32.9375H27.7312C29.4312 32.9375 30.8125 31.4925 30.8125 29.6863C30.8125 27.7525 29.9625 27.0513 28.7088 26.605L22.3125 24.3738C21.0588 23.9275 20.2088 23.2475 20.2088 21.2925C20.2088 19.5075 21.59 18.0413 23.29 18.0413H27.285C29.24 18.0413 30.8338 19.6988 30.8338 21.76" stroke="#333333" stroke-width="1.5" stroke-linecap="round" stroke-linejoin="round"/>
<path d="M25.5 15.9375V35.0625" stroke="#333333" stroke-width="1.5" stroke-linecap="round" stroke-linejoin="round"/>
<path d="M46.75 25.5C46.75 37.23 37.23 46.75 25.5 46.75C13.77 46.75 4.25 37.23 4.25 25.5C4.25 13.77 13.77 4.25 25.5 4.25" stroke="#333333" stroke-width="1.5" stroke-linecap="round" stroke-linejoin="round"/>
<path d="M46.75 12.75V4.25H38.25" stroke="#333333" stroke-width="1.5" stroke-linecap="round" stroke-linejoin="round"/>
<path d="M36.125 14.875L46.75 4.25" stroke="#333333" stroke-width="1.5" stroke-linecap="round" stroke-linejoin="round"/>
</svg>
