<svg width="62" height="60" viewBox="0 0 62 60" fill="none" xmlns="http://www.w3.org/2000/svg">
<mask id="mask0_152_201" style="mask-type:luminance" maskUnits="userSpaceOnUse" x="0" y="0" width="62" height="60">
<path d="M0 59.2546H62V-8.09431e-05H0V59.2546Z" fill="white"/>
</mask>
<g mask="url(#mask0_152_201)">
<path fill-rule="evenodd" clip-rule="evenodd" d="M10.4005 -0.00884443H51.7295L52.2657 0.00161186L52.7872 0.043437L53.307 0.106175L53.8158 0.191575L54.3154 0.30311L54.8078 0.435564L55.2874 0.590674L55.7561 0.768436L56.2138 0.965372L56.6588 1.18322L57.0928 1.42373L57.5123 1.67992L57.9153 1.95353L58.3056 2.2498L58.683 2.56176L59.0387 2.88766L59.3833 3.23099L59.7061 3.58652L60.0161 3.96122L60.3024 4.34986L60.5687 4.7507L60.8167 5.16549L61.0465 5.59072L61.2562 6.02816L61.4367 6.47606L61.6009 6.93441L61.7395 7.40496L61.8562 7.88249L61.9455 8.36872L62.0112 8.86019L62.0531 9.36386L62.0659 9.87275V49.3765L62.0531 49.8838L62.0112 50.3838L61.9455 50.8801L61.8562 51.3652L61.7395 51.843L61.6009 52.3132L61.4367 52.7688L61.2562 53.2169L61.0465 53.6576L60.8167 54.0799L60.5687 54.4947L60.3024 54.8947L60.0161 55.2835L59.7061 55.6538L59.3833 56.013L59.0387 56.3574L58.683 56.6833L58.3056 56.9944L57.9153 57.287L57.5123 57.561L57.0928 57.8166L56.6588 58.0536L56.2138 58.2721L55.7561 58.4721L55.2874 58.6461L54.8078 58.8017L54.3154 58.935L53.8158 59.0461L53.307 59.1313L52.7872 59.1942L52.2657 59.235L51.7295 59.2461H10.4005L9.86558 59.235L9.34256 59.1942L8.82319 59.1313L8.31549 59.0461L7.8118 58.935L7.32343 58.8017L6.8429 58.6461L6.37404 58.4721L5.91285 58.2721L5.46733 58.0536L5.03714 57.8166L4.61478 57.561L4.21176 57.287L3.82022 56.9944L3.44437 56.6833L3.08785 56.3574L2.743 56.013L2.42131 55.6538L2.11512 55.2835L1.82462 54.8947L1.55718 54.4947L1.30917 54.0799L1.08052 53.6576L0.871257 53.2169L0.689131 52.7688L0.526371 52.3132L0.386863 51.843L0.270606 51.3652L0.181472 50.8801L0.115594 50.3838L0.072966 49.8838L0.0613403 49.3765V9.87275L0.072966 9.36386L0.115594 8.86019L0.181472 8.36872L0.270606 7.88249L0.386863 7.40496L0.526371 6.93441L0.689131 6.47606L0.871257 6.02816L1.08052 5.59072L1.30917 5.16549L1.55718 4.7507L1.82462 4.34986L2.11512 3.96122L2.42131 3.58652L2.743 3.23099L3.08785 2.88766L3.44437 2.56176L3.82022 2.2498L4.21176 1.95353L4.61478 1.67992L5.03714 1.42373L5.46733 1.18322L5.91285 0.965372L6.37404 0.768436L6.8429 0.590674L7.32343 0.435564L7.8118 0.30311L8.31549 0.191575L8.82319 0.106175L9.34256 0.043437L9.86558 0.00161186L10.4005 -0.00884443Z" fill="#1A5493"/>
<path fill-rule="evenodd" clip-rule="evenodd" d="M5.22714 49.3691H10.0479V29.6147H5.22714V49.3691Z" fill="#FFF212"/>
<path fill-rule="evenodd" clip-rule="evenodd" d="M31.6491 34.1324H31.3738L31.102 34.1411L30.834 34.1516L30.575 34.1673L30.3197 34.1812L30.068 34.2039L29.82 34.23L29.5757 34.2562L29.3386 34.2893L29.107 34.3224L28.8772 34.359L28.6529 34.3991L28.4359 34.4409L28.2225 34.4845L28.0128 34.5333L27.8086 34.5821L27.6098 34.6326L27.4165 34.6849L27.2305 34.7407L27.0481 34.7964L26.8694 34.8522L26.6998 34.9115L26.5338 34.9707L26.3734 35.0335L26.2183 35.0927L26.0688 35.1554L25.9247 35.2182L25.7843 35.2809L25.653 35.3437L25.5254 35.4064L25.405 35.4709L25.2883 35.5336L26.1965 38.4441L26.3004 38.3848L26.4098 38.3256L26.5211 38.2663L26.6378 38.2106L26.7581 38.1548L26.8822 38.099L27.0098 38.0432L27.1411 37.9927L27.2779 37.9404L27.4165 37.8881L27.5569 37.8359L27.6991 37.7888L27.8432 37.7435L27.9909 37.6964L28.1405 37.6511L28.2918 37.611L28.4468 37.5692L28.6018 37.5326L28.7605 37.496L28.9155 37.4629L29.076 37.4298L29.2383 37.4002L29.3969 37.374L29.5593 37.3479L29.7179 37.3252L29.882 37.3078L30.0443 37.2886L30.203 37.2782L30.3653 37.266L30.524 37.2555L30.6881 37.252H30.8467L31.102 37.2555L31.3501 37.266L31.5817 37.2851L31.7987 37.3078L32.0084 37.3409L32.2072 37.3775L32.3932 37.4211L32.5664 37.4699L32.7342 37.5256L32.8892 37.5849L33.0315 37.6476L33.1628 37.7139L33.2868 37.7853L33.4035 37.8585L33.5129 37.9369L33.6095 38.0136L33.6989 38.0955L33.7828 38.1809L33.8576 38.2628L33.9232 38.3482L33.9816 38.4371L34.0363 38.5225L34.0819 38.6062L34.1238 38.6916L34.1603 38.777L34.1858 38.8589L34.2095 38.9408L34.2296 39.0175L34.2442 39.0959L34.2533 39.1691L34.2606 39.2405V39.3068V39.4654L33.6825 39.4706L33.1172 39.4845L32.5664 39.5107L32.0321 39.5473L31.5124 39.5961L31.009 39.6588L30.5167 39.7285L30.0443 39.8139L29.5866 39.9063L29.1489 40.0143L28.7222 40.1328L28.3155 40.2618L27.9289 40.403L27.5569 40.5546L27.1995 40.7184L26.8621 40.8927L26.5448 41.0774L26.2457 41.2726L25.963 41.48L25.7041 41.7031L25.4597 41.9326L25.2391 42.1733L25.0366 42.4288L24.8506 42.6918L24.692 42.9657L24.5497 43.2547L24.4294 43.551L24.3327 43.8621L24.2543 44.1805L24.1959 44.5102L24.1649 44.8546L24.154 45.2064L24.1576 45.4175L24.1722 45.6285L24.1996 45.8396L24.2397 46.047L24.2889 46.2544L24.3473 46.4618L24.4166 46.6655L24.4987 46.8656L24.588 47.0618L24.692 47.2544L24.805 47.4433L24.9254 47.6284L25.0567 47.8098L25.2008 47.9839L25.3558 48.1544L25.5181 48.3173L25.6913 48.4728L25.8737 48.6209L26.0688 48.7617L26.2694 48.895L26.4828 49.0209L26.7071 49.1394L26.9405 49.2467L27.1849 49.3431L27.4365 49.432L27.6955 49.5097L27.9709 49.5765L28.2499 49.6319L28.5398 49.6763L28.8389 49.7098L29.1489 49.7283L29.4662 49.7356L29.6596 49.7319L29.851 49.7246L30.037 49.7171L30.2231 49.7023L30.4036 49.6838L30.586 49.6615L30.7647 49.6357L30.9434 49.6061L31.1166 49.569L31.2881 49.532L31.4577 49.4913L31.6254 49.4468L31.7877 49.3987L31.95 49.3468L32.1087 49.2875L32.2637 49.2283L32.4151 49.1654L32.5664 49.0986L32.7141 49.032L32.8582 48.958L32.9968 48.8802L33.1318 48.8023L33.2685 48.7173L33.3962 48.6321L33.5238 48.5432L33.6478 48.4506L33.7682 48.3543L33.8813 48.2542L33.9925 48.1544L34.1019 48.0507L34.2059 47.9431L34.3062 47.8321H34.3609L34.8879 49.3691H38.8106V40.6139L38.8051 40.281L38.7869 39.9551L38.7595 39.6327L38.7212 39.3137L38.6701 39L38.6045 38.6916L38.5315 38.3918L38.4422 38.099L38.3364 37.8115L38.2252 37.5326L38.092 37.2625L37.9498 36.9993L37.7911 36.7449L37.6197 36.4991L37.4301 36.2621L37.2295 36.0373L37.0125 35.8212L36.7754 35.619L36.5237 35.4256L36.2556 35.2443L35.973 35.0735L35.6703 34.9184L35.3529 34.7738L35.0156 34.6448L34.6636 34.5263L34.2879 34.4252L33.8959 34.3363L33.4855 34.2631L33.0552 34.2074L32.6047 34.1673L32.136 34.1411L31.6491 34.1324ZM34.3992 43.9065V43.9954L34.3955 44.0879L34.3882 44.1805L34.3809 44.2768L34.3682 44.3694L34.3572 44.4658L34.3408 44.5583L34.3189 44.6508L34.3098 44.6841L34.2952 44.7324L34.2843 44.7768L34.2715 44.8065L34.2569 44.8434L34.2405 44.8805L34.1986 44.9731L34.1512 45.062L34.1019 45.1508L34.0472 45.2397L33.9889 45.325L33.9269 45.4138L33.8612 45.4989L33.7919 45.5804L33.7171 45.6618L33.6442 45.7434L33.5621 45.8211L33.4782 45.8989L33.3925 45.9729L33.3032 46.0433L33.2065 46.1137L33.1099 46.1803L33.0077 46.2434L32.9074 46.3063L32.7999 46.3619L32.6904 46.4173L32.5792 46.4693L32.4625 46.5137L32.3458 46.5581L32.2218 46.5989L32.0978 46.6322L31.9737 46.6655L31.8424 46.6915L31.7111 46.7136L31.578 46.7323L31.4394 46.7432L31.299 46.7544H31.1604H31.0364L30.916 46.7471L30.7993 46.7396L30.6826 46.7248L30.5714 46.7063L30.4619 46.6878L30.3544 46.6618L30.2486 46.6322L30.1519 46.6026L30.0516 46.5655L29.9586 46.5249L29.8693 46.4804L29.7799 46.436L29.6997 46.384L29.6176 46.3284L29.5447 46.273L29.4699 46.2099L29.4042 46.1434L29.3386 46.0766L29.2802 46.0025L29.2255 45.9248L29.1726 45.8471L29.1252 45.7619L29.0833 45.6766L29.0486 45.5878L29.014 45.4916L28.9866 45.3952L28.9629 45.2953L28.9429 45.1878L28.9319 45.0804L28.9246 44.9694L28.921 44.8546L28.9246 44.7249L28.9356 44.6027L28.9556 44.4806L28.9775 44.3621L29.0085 44.2509L29.0486 44.1399L29.0942 44.0362L29.1453 43.9325L29.2036 43.8324L29.2656 43.7399L29.3349 43.6472L29.4115 43.5583L29.4936 43.4732L29.583 43.3953L29.676 43.3176L29.7763 43.2435L29.882 43.1695L29.9896 43.1029L30.1063 43.0398L30.2267 42.9769L30.3507 42.9176L30.482 42.862L30.6133 42.8103L30.7537 42.7622L30.8996 42.7139L31.0473 42.6733L31.1987 42.6325L31.3574 42.5917L31.516 42.5585L31.6838 42.5252L31.8497 42.4955L32.0248 42.4696L32.1871 42.4473L32.3567 42.4251L32.5281 42.4067L32.7068 42.388L32.8837 42.377L33.0698 42.3622L33.2558 42.3547L33.4472 42.3474L33.5621 42.3436L33.6788 42.3399L33.7992 42.3362H33.9159H34.0363H34.1548H34.2752H34.3992V43.9065Z" fill="#FFF212"/>
<path fill-rule="evenodd" clip-rule="evenodd" d="M52.1252 34.5665V43.2436V43.3733L52.1179 43.4991L52.1051 43.6215L52.0869 43.74L52.0668 43.8585L52.0395 43.9695L52.0048 44.0807L51.9629 44.1844L51.9282 44.2694L51.8845 44.3547L51.8389 44.4399L51.7915 44.5251L51.7422 44.6065L51.6875 44.6917L51.6292 44.7769L51.5672 44.8583L51.5015 44.9399L51.4359 45.0213L51.3611 45.1028L51.2881 45.1806L51.2115 45.2546L51.1295 45.3287L51.0438 45.3991L50.9544 45.4693L50.8614 45.5361L50.7684 45.6027L50.6681 45.6619L50.5678 45.7212L50.4584 45.7731L50.3508 45.8249L50.2377 45.8731L50.121 45.9138L50.0025 45.9545L49.8785 45.9878L49.749 46.0174L49.6177 46.0398L49.4864 46.0619L49.346 46.073L49.2074 46.0842H49.0597L48.8809 46.0805L48.7077 46.0694L48.5363 46.0509L48.374 46.0213L48.219 45.9878L48.0676 45.9434L47.9254 45.8916L47.7886 45.8324L47.6573 45.7695L47.5333 45.6954L47.4129 45.6138L47.2998 45.5249L47.1959 45.4324L47.092 45.3287L46.9989 45.2213L46.9096 45.1065L46.8239 44.9843L46.7473 44.8547L46.6762 44.7177L46.6069 44.5769L46.5485 44.4287L46.4902 44.2733L46.4409 44.1103L46.3971 43.9435L46.3589 43.7696L46.3242 43.5918L46.2968 43.4066L46.2731 43.214L46.2549 43.0178L46.2421 42.814L46.2348 42.6066L46.2312 42.3919V34.5595H41.5262V43.214V43.4325L41.5335 43.6436L41.5426 43.8473L41.5536 44.0511L41.57 44.251L41.5882 44.4472L41.6119 44.6361L41.6356 44.825L41.6666 45.0065L41.6976 45.1842L41.7323 45.3583L41.7742 45.5286L41.818 45.6954L41.8636 45.8583L41.911 46.0174L41.9639 46.1694L42.0186 46.3212L42.0806 46.4694L42.139 46.6138L42.2046 46.7545L42.2703 46.8915L42.3359 47.0248L42.4107 47.1544L42.4836 47.2841L42.5566 47.4063L42.635 47.5284L42.717 47.647L42.8009 47.7581L42.8866 47.8692L42.976 47.9767L43.0654 48.0804L43.1584 48.1802L43.255 48.2803L43.3553 48.3728L43.4556 48.4655L43.5577 48.5506L43.6653 48.6358L43.7711 48.7174L43.8824 48.7951L43.9954 48.8692L44.1121 48.9396L44.227 49.0062L44.3474 49.0691L44.4677 49.1322L44.5917 49.1876L44.7194 49.2432L44.8471 49.2913L44.9802 49.3395L45.1151 49.384L45.2464 49.4246L45.3869 49.4654L45.5218 49.4987L45.6659 49.5321L45.8045 49.5618L45.9485 49.5914L46.0962 49.6135L46.2421 49.6358L46.3899 49.6543L46.5412 49.6691L46.6926 49.6839L46.8476 49.6951L47.0026 49.6987L47.1612 49.7061H47.3199H47.4603L47.5953 49.7024L47.7266 49.6987L47.8579 49.6912L47.991 49.6803L48.1187 49.6691L48.2463 49.658L48.3703 49.6395L48.4907 49.6247L48.611 49.6024L48.7314 49.5839L48.8463 49.5579L48.9594 49.5358L49.0724 49.5062L49.1837 49.4765L49.2931 49.4469L49.501 49.3802L49.707 49.3099L49.9004 49.2359L50.09 49.1618L50.2724 49.0802L50.4474 48.9988L50.6134 48.91L50.7721 48.8211L50.9234 48.7284L51.0711 48.6358L51.2115 48.5396L51.3465 48.4432L51.4742 48.3432L51.5945 48.2395L51.7076 48.1358L51.8152 48.0284L51.9191 47.9248L52.0176 47.8211L52.1051 47.721L52.1908 47.6248L52.2729 47.5323L52.3458 47.4396L52.4115 47.3545L52.4735 47.2656L53.0789 49.3692H56.8995V34.5665H52.1252Z" fill="#FFF212"/>
<path fill-rule="evenodd" clip-rule="evenodd" d="M14.5701 29.6151V34.5594H12.3728V37.9335H14.5701V43.9546L14.5739 44.1399L14.5777 44.3213L14.5817 44.5027L14.5894 44.6768L14.6011 44.8509L14.6166 45.0212L14.6321 45.1878L14.6514 45.3546L14.6707 45.5137L14.6941 45.673L14.7213 45.8286L14.7523 45.9804L14.7833 46.1286L14.8181 46.2767L14.8529 46.4173L14.8918 46.5581L14.9343 46.6951L14.9808 46.8285L15.0273 46.9581L15.0778 47.0839L15.1319 47.21L15.1863 47.3285L15.2443 47.447L15.3063 47.558L15.3683 47.6692L15.4343 47.7765L15.504 47.8802L15.5776 47.9839L15.6513 48.0803L15.7288 48.1728L15.8101 48.2654L15.8915 48.3506L15.969 48.4247L16.0465 48.4987L16.1278 48.5691L16.2093 48.6394L16.2983 48.7061L16.3875 48.7727L16.4843 48.8395L16.5814 48.9024L16.6782 48.9653L16.7829 49.0245L16.8874 49.0801L16.9959 49.1394L17.1084 49.1913L17.2207 49.2431L17.3409 49.295L17.4571 49.3395L17.5811 49.3876L17.7051 49.4283L17.8329 49.4689L17.9609 49.5061L18.0926 49.543L18.2283 49.5726L18.3638 49.6023L18.5042 49.6282L18.6428 49.6542L18.7869 49.6763L18.9291 49.6912L19.0768 49.706L19.2245 49.7208L19.3759 49.7283L19.5273 49.7319L19.6823 49.7356L19.9376 49.7319L20.1728 49.7246L20.3953 49.7135L20.5959 49.6986L20.7856 49.6802L20.9606 49.6579L21.1266 49.6319L21.278 49.6023L21.4257 49.5726L21.5606 49.5394L21.6883 49.5024L21.8159 49.4653L22.0566 49.3839L22.2937 49.2987V45.8582L22.2317 45.8804L22.1497 45.9027L22.053 45.9248L21.9326 45.9433L21.7977 45.9619L21.6463 45.9729L21.484 45.9841L21.309 45.9877L21.1539 45.9841L21.0099 45.9768L20.8713 45.9619L20.74 45.9396L20.616 45.9137L20.4993 45.884L20.3862 45.8471L20.2822 45.8027L20.1856 45.7546L20.0926 45.7026L20.0032 45.6397L19.9248 45.5768L19.8482 45.5064L19.7789 45.4323L19.7133 45.3507L19.6549 45.2619L19.6002 45.173L19.5491 45.0731L19.5036 44.9731L19.4598 44.8657L19.4251 44.7509L19.3905 44.636L19.3631 44.5102L19.3358 44.3842L19.3175 44.2509L19.2975 44.1102L19.2829 43.9694L19.2701 43.8213L19.2628 43.6658L19.2555 43.5102L19.2519 43.3472V43.1806V37.9335H22.2427V34.5594H19.2519V29.6151H14.5701Z" fill="#FFF212"/>
<path fill-rule="evenodd" clip-rule="evenodd" d="M50.347 29.6118L47.4402 33.6045H50.8029L54.9006 29.6118H50.347Z" fill="#FFF212"/>
</g>
</svg>
