<svg width="390" height="294" viewBox="0 0 390 294" fill="none" xmlns="http://www.w3.org/2000/svg">
<path d="M1 212.089L6.88594 204.973C12.7719 197.857 24.5438 183.625 36.3156 173.656C48.0875 163.686 59.8594 157.979 71.6313 181.699C83.4031 205.419 95.175 258.567 106.947 259.516C118.719 260.466 130.491 209.218 142.263 178.916C154.034 148.614 165.806 139.259 177.578 127.256C189.35 115.253 201.122 100.602 212.894 88.6379C224.666 76.6738 236.438 67.3961 248.209 93.6363C259.981 119.876 271.753 181.634 283.525 182.242C295.297 182.85 307.069 122.307 318.841 118.57C330.613 114.834 342.384 167.905 354.156 157.777C365.928 147.65 377.7 74.325 383.586 37.6625L389.472 1" stroke="white"/>
<path d="M6.88594 206.262L1 213.423V294H389.472V1L383.586 37.8943L383.586 37.8946C377.7 74.789 365.928 148.577 354.156 158.768C342.384 168.96 330.613 115.554 318.841 119.314C307.069 123.073 295.297 183.999 283.525 183.388C271.753 182.776 259.981 120.628 248.209 94.2219C236.438 67.8158 224.666 77.1521 212.894 89.1919C201.122 101.232 189.35 115.975 177.578 128.054C165.806 140.133 154.034 149.547 142.262 180.041C130.491 210.534 118.719 262.106 106.947 261.151C95.175 260.195 83.4031 206.711 71.6312 182.841C59.8594 158.971 48.0875 164.715 36.3156 174.747C24.5438 184.78 12.7719 199.102 6.88594 206.262Z" fill="url(#paint0_linear_213_241)" fill-opacity="0.6"/>
<defs>
<linearGradient id="paint0_linear_213_241" x1="195.236" y1="10.8764" x2="195.236" y2="246.264" gradientUnits="userSpaceOnUse">
<stop stop-color="white"/>
<stop offset="1" stop-color="white" stop-opacity="0"/>
</linearGradient>
</defs>
</svg>
