<svg width="959" height="422" viewBox="0 0 959 422" fill="none" xmlns="http://www.w3.org/2000/svg">
<path d="M90.2725 207.485C90.2725 199.201 96.9882 192.485 105.272 192.485H146.563C154.847 192.485 161.563 199.201 161.563 207.485V394.136H90.2725V207.485Z" fill="#D9D9D9"/>
<path d="M216 195.963C216 187.679 222.716 180.963 231 180.963H272C280.284 180.963 287 187.679 287 195.963V393.963H216V195.963Z" fill="#D9D9D9"/>
<path d="M341 175.963C341 167.679 347.716 160.963 356 160.963H397C405.284 160.963 412 167.679 412 175.963V393.963H341V175.963Z" fill="#D9D9D9"/>
<path d="M466 154.963C466 146.679 472.716 139.963 481 139.963H522C530.284 139.963 537 146.679 537 154.963V393.963H466V154.963Z" fill="#D9D9D9"/>
<path d="M591 134.963C591 126.679 597.716 119.963 606 119.963H648C656.284 119.963 663 126.679 663 134.963V393.963H591V134.963Z" fill="#D9D9D9"/>
<path d="M717 113.963C717 105.679 723.716 98.9631 732 98.9631H773C781.284 98.9631 788 105.679 788 113.963V393.963H717V113.963Z" fill="#D9D9D9"/>
<path d="M841.88 90.3645C841.88 82.0802 848.596 75.3645 856.88 75.3645H898.171C906.455 75.3645 913.171 82.0802 913.171 90.3645V394.136H841.88V90.3645Z" fill="#D9D9D9"/>
<path d="M56.6641 0V394.136H959" stroke="#252322" stroke-width="1.01844"/>
<path d="M97.8105 417.963V408.099H99.2324L102.65 416.411H102.691L106.109 408.099H107.531V417.963H106.383V410.341H106.342L103.19 417.963H102.151L99 410.341H98.959V417.963H97.8105ZM111.134 418.1C109.719 418.1 108.769 417.245 108.769 415.953V415.94C108.769 414.73 109.712 413.971 111.346 413.875L113.383 413.759V413.164C113.383 412.296 112.815 411.77 111.824 411.77C110.908 411.77 110.334 412.207 110.197 412.843L110.184 412.905H109.035L109.042 412.829C109.145 411.66 110.163 410.717 111.838 410.717C113.52 410.717 114.572 411.626 114.572 413.048V417.963H113.383V416.808H113.355C112.938 417.587 112.084 418.1 111.134 418.1ZM109.985 415.953C109.985 416.637 110.546 417.068 111.4 417.068C112.521 417.068 113.383 416.295 113.383 415.263V414.682L111.482 414.798C110.532 414.853 109.985 415.277 109.985 415.94V415.953ZM116.083 417.963V410.854H117.272V412.057H117.3C117.539 411.237 118.154 410.717 118.954 410.717C119.159 410.717 119.337 410.751 119.433 410.765V411.92C119.337 411.886 119.084 411.852 118.797 411.852C117.874 411.852 117.272 412.494 117.272 413.574V417.963H116.083ZM123.302 417.963V417.115L126.774 413.492C128.107 412.105 128.415 411.572 128.415 410.751V410.738C128.408 409.733 127.649 409.008 126.576 409.008C125.346 409.008 124.43 409.856 124.43 410.915V410.949H123.24V410.908C123.24 409.199 124.717 407.935 126.556 407.935C128.34 407.935 129.646 409.131 129.646 410.676V410.69C129.646 411.77 129.146 412.583 127.335 414.436L124.99 416.842V416.869H129.81V417.963H123.302ZM134.67 418.127C132.4 418.127 131.054 416.165 131.054 413.034V413.021C131.054 409.89 132.4 407.935 134.67 407.935C136.939 407.935 138.3 409.89 138.3 413.021V413.034C138.3 416.165 136.939 418.127 134.67 418.127ZM134.67 417.054C136.174 417.054 137.062 415.509 137.062 413.034V413.021C137.062 410.546 136.174 409.015 134.67 409.015C133.166 409.015 132.291 410.546 132.291 413.021V413.034C132.291 415.509 133.166 417.054 134.67 417.054ZM139.585 417.963V417.115L143.058 413.492C144.391 412.105 144.698 411.572 144.698 410.751V410.738C144.691 409.733 143.933 409.008 142.859 409.008C141.629 409.008 140.713 409.856 140.713 410.915V410.949H139.523V410.908C139.523 409.199 141 407.935 142.839 407.935C144.623 407.935 145.929 409.131 145.929 410.676V410.69C145.929 411.77 145.43 412.583 143.618 414.436L141.273 416.842V416.869H146.093V417.963H139.585ZM150.837 418.127C148.8 418.127 147.48 416.992 147.351 415.434L147.344 415.352H148.526L148.533 415.42C148.636 416.391 149.524 417.061 150.837 417.061C152.129 417.061 153.011 416.336 153.011 415.29V415.277C153.011 414.067 152.143 413.39 150.762 413.39H149.524V412.351H150.707C151.883 412.351 152.703 411.626 152.703 410.642V410.628C152.703 409.596 152.026 409.001 150.823 409.001C149.661 409.001 148.834 409.616 148.731 410.615L148.725 410.683H147.542L147.549 410.615C147.706 409.008 148.978 407.935 150.823 407.935C152.703 407.935 153.94 408.981 153.94 410.478V410.491C153.94 411.708 153.079 412.542 151.849 412.802V412.829C153.284 412.952 154.262 413.848 154.262 415.249V415.263C154.262 416.91 152.812 418.127 150.837 418.127Z" fill="#252322"/>
<path d="M222.829 417.963L226.5 408.099H227.717L231.381 417.963H230.089L229.091 415.14H225.119L224.121 417.963H222.829ZM227.095 409.575L225.495 414.094H228.722L227.122 409.575H227.095ZM235.865 418.1C234.847 418.1 234.054 417.587 233.609 416.76H233.582V417.963H232.393V408.099H233.582V412.043H233.609C234.054 411.223 234.881 410.717 235.886 410.717C237.67 410.717 238.887 412.159 238.887 414.402V414.408C238.887 416.651 237.684 418.1 235.865 418.1ZM235.633 417.047C236.891 417.047 237.67 416.042 237.67 414.408V414.402C237.67 412.781 236.891 411.77 235.633 411.77C234.437 411.77 233.575 412.816 233.575 414.402V414.408C233.575 416.001 234.43 417.047 235.633 417.047ZM240.083 417.963V410.854H241.272V412.057H241.3C241.539 411.237 242.154 410.717 242.954 410.717C243.159 410.717 243.337 410.751 243.433 410.765V411.92C243.337 411.886 243.084 411.852 242.797 411.852C241.874 411.852 241.272 412.494 241.272 413.574V417.963H240.083ZM247.302 417.963V417.115L250.774 413.492C252.107 412.105 252.415 411.572 252.415 410.751V410.738C252.408 409.733 251.649 409.008 250.576 409.008C249.346 409.008 248.43 409.856 248.43 410.915V410.949H247.24V410.908C247.24 409.199 248.717 407.935 250.556 407.935C252.34 407.935 253.646 409.131 253.646 410.676V410.69C253.646 411.77 253.146 412.583 251.335 414.436L248.99 416.842V416.869H253.81V417.963H247.302ZM258.67 418.127C256.4 418.127 255.054 416.165 255.054 413.034V413.021C255.054 409.89 256.4 407.935 258.67 407.935C260.939 407.935 262.3 409.89 262.3 413.021V413.034C262.3 416.165 260.939 418.127 258.67 418.127ZM258.67 417.054C260.174 417.054 261.062 415.509 261.062 413.034V413.021C261.062 410.546 260.174 409.015 258.67 409.015C257.166 409.015 256.291 410.546 256.291 413.021V413.034C256.291 415.509 257.166 417.054 258.67 417.054ZM263.585 417.963V417.115L267.058 413.492C268.391 412.105 268.698 411.572 268.698 410.751V410.738C268.691 409.733 267.933 409.008 266.859 409.008C265.629 409.008 264.713 409.856 264.713 410.915V410.949H263.523V410.908C263.523 409.199 265 407.935 266.839 407.935C268.623 407.935 269.929 409.131 269.929 410.676V410.69C269.929 411.77 269.43 412.583 267.618 414.436L265.273 416.842V416.869H270.093V417.963H263.585ZM274.837 418.127C272.8 418.127 271.48 416.992 271.351 415.434L271.344 415.352H272.526L272.533 415.42C272.636 416.391 273.524 417.061 274.837 417.061C276.129 417.061 277.011 416.336 277.011 415.29V415.277C277.011 414.067 276.143 413.39 274.762 413.39H273.524V412.351H274.707C275.883 412.351 276.703 411.626 276.703 410.642V410.628C276.703 409.596 276.026 409.001 274.823 409.001C273.661 409.001 272.834 409.616 272.731 410.615L272.725 410.683H271.542L271.549 410.615C271.706 409.008 272.978 407.935 274.823 407.935C276.703 407.935 277.94 408.981 277.94 410.478V410.491C277.94 411.708 277.079 412.542 275.849 412.802V412.829C277.284 412.952 278.262 413.848 278.262 415.249V415.263C278.262 416.91 276.812 418.127 274.837 418.127Z" fill="#252322"/>
<path d="M346.322 417.963V408.099H347.744L351.162 416.411H351.203L354.621 408.099H356.043V417.963H354.895V410.341H354.854L351.702 417.963H350.663L347.512 410.341H347.471V417.963H346.322ZM359.646 418.1C358.23 418.1 357.28 417.245 357.28 415.953V415.94C357.28 414.73 358.224 413.971 359.857 413.875L361.895 413.759V413.164C361.895 412.296 361.327 411.77 360.336 411.77C359.42 411.77 358.846 412.207 358.709 412.843L358.695 412.905H357.547L357.554 412.829C357.656 411.66 358.675 410.717 360.35 410.717C362.031 410.717 363.084 411.626 363.084 413.048V417.963H361.895V416.808H361.867C361.45 417.587 360.596 418.1 359.646 418.1ZM358.497 415.953C358.497 416.637 359.058 417.068 359.912 417.068C361.033 417.068 361.895 416.295 361.895 415.263V414.682L359.994 414.798C359.044 414.853 358.497 415.277 358.497 415.94V415.953ZM365.278 420.356C365.046 420.356 364.793 420.328 364.643 420.301V419.33C364.745 419.351 364.882 419.371 365.025 419.371C365.777 419.371 366.194 419.18 366.481 418.373L366.625 417.97L363.986 410.854H365.258L367.22 416.774H367.247L369.216 410.854H370.467L367.691 418.407C367.186 419.768 366.563 420.356 365.278 420.356ZM374.302 417.963V417.115L377.774 413.492C379.107 412.105 379.415 411.572 379.415 410.751V410.738C379.408 409.733 378.649 409.008 377.576 409.008C376.346 409.008 375.43 409.856 375.43 410.915V410.949H374.24V410.908C374.24 409.199 375.717 407.935 377.556 407.935C379.34 407.935 380.646 409.131 380.646 410.676V410.69C380.646 411.77 380.146 412.583 378.335 414.436L375.99 416.842V416.869H380.81V417.963H374.302ZM385.67 418.127C383.4 418.127 382.054 416.165 382.054 413.034V413.021C382.054 409.89 383.4 407.935 385.67 407.935C387.939 407.935 389.3 409.89 389.3 413.021V413.034C389.3 416.165 387.939 418.127 385.67 418.127ZM385.67 417.054C387.174 417.054 388.062 415.509 388.062 413.034V413.021C388.062 410.546 387.174 409.015 385.67 409.015C384.166 409.015 383.291 410.546 383.291 413.021V413.034C383.291 415.509 384.166 417.054 385.67 417.054ZM390.585 417.963V417.115L394.058 413.492C395.391 412.105 395.698 411.572 395.698 410.751V410.738C395.691 409.733 394.933 409.008 393.859 409.008C392.629 409.008 391.713 409.856 391.713 410.915V410.949H390.523V410.908C390.523 409.199 392 407.935 393.839 407.935C395.623 407.935 396.929 409.131 396.929 410.676V410.69C396.929 411.77 396.43 412.583 394.618 414.436L392.273 416.842V416.869H397.093V417.963H390.585ZM401.837 418.127C399.8 418.127 398.48 416.992 398.351 415.434L398.344 415.352H399.526L399.533 415.42C399.636 416.391 400.524 417.061 401.837 417.061C403.129 417.061 404.011 416.336 404.011 415.29V415.277C404.011 414.067 403.143 413.39 401.762 413.39H400.524V412.351H401.707C402.883 412.351 403.703 411.626 403.703 410.642V410.628C403.703 409.596 403.026 409.001 401.823 409.001C400.661 409.001 399.834 409.616 399.731 410.615L399.725 410.683H398.542L398.549 410.615C398.706 409.008 399.978 407.935 401.823 407.935C403.703 407.935 404.94 408.981 404.94 410.478V410.491C404.94 411.708 404.079 412.542 402.849 412.802V412.829C404.284 412.952 405.262 413.848 405.262 415.249V415.263C405.262 416.91 403.812 418.127 401.837 418.127Z" fill="#252322"/>
<path d="M477.003 418.127C475.294 418.127 474.33 417.068 474.228 415.653L474.221 415.557H475.451L475.458 415.625C475.533 416.37 476.019 416.992 476.996 416.992C478.09 416.992 478.678 416.343 478.678 415.14V408.099H479.908V415.154C479.908 417.02 478.828 418.127 477.003 418.127ZM484.064 418.1C482.506 418.1 481.604 417.088 481.604 415.468V410.854H482.793V415.256C482.793 416.411 483.333 417.047 484.427 417.047C485.548 417.047 486.279 416.247 486.279 415.037V410.854H487.469V417.963H486.279V416.951H486.252C485.869 417.615 485.145 418.1 484.064 418.1ZM489.021 417.963V410.854H490.21V411.865H490.237C490.62 411.202 491.345 410.717 492.425 410.717C493.983 410.717 494.886 411.729 494.886 413.349V417.963H493.696V413.561C493.696 412.406 493.156 411.77 492.062 411.77C490.941 411.77 490.21 412.57 490.21 413.78V417.963H489.021ZM499.302 417.963V417.115L502.774 413.492C504.107 412.105 504.415 411.572 504.415 410.751V410.738C504.408 409.733 503.649 409.008 502.576 409.008C501.346 409.008 500.43 409.856 500.43 410.915V410.949H499.24V410.908C499.24 409.199 500.717 407.935 502.556 407.935C504.34 407.935 505.646 409.131 505.646 410.676V410.69C505.646 411.77 505.146 412.583 503.335 414.436L500.99 416.842V416.869H505.81V417.963H499.302ZM510.67 418.127C508.4 418.127 507.054 416.165 507.054 413.034V413.021C507.054 409.89 508.4 407.935 510.67 407.935C512.939 407.935 514.3 409.89 514.3 413.021V413.034C514.3 416.165 512.939 418.127 510.67 418.127ZM510.67 417.054C512.174 417.054 513.062 415.509 513.062 413.034V413.021C513.062 410.546 512.174 409.015 510.67 409.015C509.166 409.015 508.291 410.546 508.291 413.021V413.034C508.291 415.509 509.166 417.054 510.67 417.054ZM515.585 417.963V417.115L519.058 413.492C520.391 412.105 520.698 411.572 520.698 410.751V410.738C520.691 409.733 519.933 409.008 518.859 409.008C517.629 409.008 516.713 409.856 516.713 410.915V410.949H515.523V410.908C515.523 409.199 517 407.935 518.839 407.935C520.623 407.935 521.929 409.131 521.929 410.676V410.69C521.929 411.77 521.43 412.583 519.618 414.436L517.273 416.842V416.869H522.093V417.963H515.585ZM526.837 418.127C524.8 418.127 523.48 416.992 523.351 415.434L523.344 415.352H524.526L524.533 415.42C524.636 416.391 525.524 417.061 526.837 417.061C528.129 417.061 529.011 416.336 529.011 415.29V415.277C529.011 414.067 528.143 413.39 526.762 413.39H525.524V412.351H526.707C527.883 412.351 528.703 411.626 528.703 410.642V410.628C528.703 409.596 528.026 409.001 526.823 409.001C525.661 409.001 524.834 409.616 524.731 410.615L524.725 410.683H523.542L523.549 410.615C523.706 409.008 524.978 407.935 526.823 407.935C528.703 407.935 529.94 408.981 529.94 410.478V410.491C529.94 411.708 529.079 412.542 527.849 412.802V412.829C529.284 412.952 530.262 413.848 530.262 415.249V415.263C530.262 416.91 528.812 418.127 526.837 418.127Z" fill="#252322"/>
<path d="M603.528 418.127C601.819 418.127 600.855 417.068 600.753 415.653L600.746 415.557H601.977L601.983 415.625C602.059 416.37 602.544 416.992 603.521 416.992C604.615 416.992 605.203 416.343 605.203 415.14V408.099H606.434V415.154C606.434 417.02 605.354 418.127 603.528 418.127ZM610.59 418.1C609.031 418.1 608.129 417.088 608.129 415.468V410.854H609.318V415.256C609.318 416.411 609.858 417.047 610.952 417.047C612.073 417.047 612.805 416.247 612.805 415.037V410.854H613.994V417.963H612.805V416.951H612.777C612.395 417.615 611.67 418.1 610.59 418.1ZM615.607 417.963V408.099H616.797V417.963H615.607ZM621.302 417.963V417.115L624.774 413.492C626.107 412.105 626.415 411.572 626.415 410.751V410.738C626.408 409.733 625.649 409.008 624.576 409.008C623.346 409.008 622.43 409.856 622.43 410.915V410.949H621.24V410.908C621.24 409.199 622.717 407.935 624.556 407.935C626.34 407.935 627.646 409.131 627.646 410.676V410.69C627.646 411.77 627.146 412.583 625.335 414.436L622.99 416.842V416.869H627.81V417.963H621.302ZM632.67 418.127C630.4 418.127 629.054 416.165 629.054 413.034V413.021C629.054 409.89 630.4 407.935 632.67 407.935C634.939 407.935 636.3 409.89 636.3 413.021V413.034C636.3 416.165 634.939 418.127 632.67 418.127ZM632.67 417.054C634.174 417.054 635.062 415.509 635.062 413.034V413.021C635.062 410.546 634.174 409.015 632.67 409.015C631.166 409.015 630.291 410.546 630.291 413.021V413.034C630.291 415.509 631.166 417.054 632.67 417.054ZM637.585 417.963V417.115L641.058 413.492C642.391 412.105 642.698 411.572 642.698 410.751V410.738C642.691 409.733 641.933 409.008 640.859 409.008C639.629 409.008 638.713 409.856 638.713 410.915V410.949H637.523V410.908C637.523 409.199 639 407.935 640.839 407.935C642.623 407.935 643.929 409.131 643.929 410.676V410.69C643.929 411.77 643.43 412.583 641.618 414.436L639.273 416.842V416.869H644.093V417.963H637.585ZM648.837 418.127C646.8 418.127 645.48 416.992 645.351 415.434L645.344 415.352H646.526L646.533 415.42C646.636 416.391 647.524 417.061 648.837 417.061C650.129 417.061 651.011 416.336 651.011 415.29V415.277C651.011 414.067 650.143 413.39 648.762 413.39H647.524V412.351H648.707C649.883 412.351 650.703 411.626 650.703 410.642V410.628C650.703 409.596 650.026 409.001 648.823 409.001C647.661 409.001 646.834 409.616 646.731 410.615L646.725 410.683H645.542L645.549 410.615C645.706 409.008 646.978 407.935 648.823 407.935C650.703 407.935 651.94 408.981 651.94 410.478V410.491C651.94 411.708 651.079 412.542 649.849 412.802V412.829C651.284 412.952 652.262 413.848 652.262 415.249V415.263C652.262 416.91 650.812 418.127 648.837 418.127Z" fill="#252322"/>
<path d="M722.544 417.963L726.215 408.099H727.432L731.096 417.963H729.804L728.806 415.14H724.834L723.836 417.963H722.544ZM726.81 409.575L725.21 414.094H728.437L726.837 409.575H726.81ZM734.917 420.492C733.16 420.492 732.053 419.665 731.82 418.613L731.807 418.551H733.003L733.03 418.613C733.256 419.125 733.933 419.44 734.903 419.44C736.154 419.44 736.865 418.749 736.865 417.649V416.74H736.838C736.414 417.526 735.594 418.031 734.575 418.031C732.784 418.031 731.561 416.589 731.561 414.367V414.361C731.561 412.153 732.798 410.717 734.603 410.717C735.607 410.717 736.4 411.264 736.838 412.057H736.865V410.854H738.055V417.765C738.055 419.412 736.845 420.492 734.917 420.492ZM734.835 416.979C736.045 416.979 736.865 415.947 736.865 414.367V414.361C736.865 412.795 736.038 411.77 734.835 411.77C733.57 411.77 732.777 412.781 732.777 414.361V414.367C732.777 415.981 733.57 416.979 734.835 416.979ZM742.539 418.1C740.563 418.1 739.244 416.671 739.244 414.408V414.395C739.244 412.132 740.57 410.717 742.532 410.717C744.494 410.717 745.827 412.125 745.827 414.395V414.408C745.827 416.678 744.501 418.1 742.539 418.1ZM742.546 417.047C743.797 417.047 744.61 416.076 744.61 414.408V414.395C744.61 412.727 743.79 411.77 742.532 411.77C741.295 411.77 740.461 412.734 740.461 414.395V414.408C740.461 416.083 741.288 417.047 742.546 417.047ZM749.929 417.963V417.115L753.401 413.492C754.734 412.105 755.042 411.572 755.042 410.751V410.738C755.035 409.733 754.276 409.008 753.203 409.008C751.973 409.008 751.057 409.856 751.057 410.915V410.949H749.867V410.908C749.867 409.199 751.344 407.935 753.183 407.935C754.967 407.935 756.272 409.131 756.272 410.676V410.69C756.272 411.77 755.773 412.583 753.962 414.436L751.617 416.842V416.869H756.437V417.963H749.929ZM761.297 418.127C759.027 418.127 757.681 416.165 757.681 413.034V413.021C757.681 409.89 759.027 407.935 761.297 407.935C763.566 407.935 764.927 409.89 764.927 413.021V413.034C764.927 416.165 763.566 418.127 761.297 418.127ZM761.297 417.054C762.801 417.054 763.689 415.509 763.689 413.034V413.021C763.689 410.546 762.801 409.015 761.297 409.015C759.793 409.015 758.918 410.546 758.918 413.021V413.034C758.918 415.509 759.793 417.054 761.297 417.054ZM766.212 417.963V417.115L769.685 413.492C771.018 412.105 771.325 411.572 771.325 410.751V410.738C771.318 409.733 770.56 409.008 769.486 409.008C768.256 409.008 767.34 409.856 767.34 410.915V410.949H766.15V410.908C766.15 409.199 767.627 407.935 769.466 407.935C771.25 407.935 772.556 409.131 772.556 410.676V410.69C772.556 411.77 772.057 412.583 770.245 414.436L767.9 416.842V416.869H772.72V417.963H766.212ZM777.464 418.127C775.427 418.127 774.107 416.992 773.978 415.434L773.971 415.352H775.153L775.16 415.42C775.263 416.391 776.151 417.061 777.464 417.061C778.756 417.061 779.638 416.336 779.638 415.29V415.277C779.638 414.067 778.77 413.39 777.389 413.39H776.151V412.351H777.334C778.51 412.351 779.33 411.626 779.33 410.642V410.628C779.33 409.596 778.653 409.001 777.45 409.001C776.288 409.001 775.461 409.616 775.358 410.615L775.352 410.683H774.169L774.176 410.615C774.333 409.008 775.604 407.935 777.45 407.935C779.33 407.935 780.567 408.981 780.567 410.478V410.491C780.567 411.708 779.706 412.542 778.476 412.802V412.829C779.911 412.952 780.889 413.848 780.889 415.249V415.263C780.889 416.91 779.439 418.127 777.464 418.127Z" fill="#252322"/>
<path d="M852.405 418.127C850.272 418.127 848.83 417.081 848.707 415.393L848.7 415.297H849.931L849.944 415.393C850.088 416.384 851.045 416.992 852.474 416.992C853.896 416.992 854.791 416.35 854.791 415.331V415.324C854.791 414.456 854.224 413.971 852.87 413.67L851.776 413.431C849.849 413.007 848.946 412.139 848.946 410.697V410.69C848.953 409.07 850.389 407.935 852.419 407.935C854.347 407.935 855.755 409.049 855.864 410.662L855.871 410.765H854.641L854.627 410.669C854.477 409.664 853.636 409.07 852.385 409.07C851.065 409.076 850.204 409.705 850.204 410.656V410.662C850.204 411.469 850.799 411.975 852.084 412.255L853.178 412.494C855.201 412.939 856.049 413.759 856.049 415.263V415.27C856.049 417.02 854.661 418.127 852.405 418.127ZM860.232 418.1C858.188 418.1 856.958 416.671 856.958 414.436V414.429C856.958 412.228 858.216 410.717 860.157 410.717C862.099 410.717 863.281 412.159 863.281 414.292V414.73H858.161C858.188 416.193 858.995 417.047 860.26 417.047C861.162 417.047 861.798 416.596 862.003 415.988L862.023 415.926H863.192L863.179 415.994C862.946 417.17 861.784 418.1 860.232 418.1ZM860.15 411.77C859.118 411.77 858.312 412.474 858.182 413.8H862.071C861.955 412.419 861.189 411.77 860.15 411.77ZM864.484 420.356V410.854H865.674V412.057H865.701C866.146 411.23 866.938 410.717 867.957 410.717C869.775 410.717 870.979 412.166 870.979 414.408V414.415C870.979 416.657 869.762 418.1 867.978 418.1C866.973 418.1 866.146 417.594 865.701 416.774H865.674V420.356H864.484ZM867.725 417.047C868.982 417.047 869.762 416.035 869.762 414.415V414.408C869.762 412.775 868.982 411.77 867.725 411.77C866.521 411.77 865.667 412.816 865.667 414.408V414.415C865.667 416.001 866.528 417.047 867.725 417.047ZM875.08 417.963V417.115L878.553 413.492C879.886 412.105 880.193 411.572 880.193 410.751V410.738C880.187 409.733 879.428 409.008 878.354 409.008C877.124 409.008 876.208 409.856 876.208 410.915V410.949H875.019V410.908C875.019 409.199 876.495 407.935 878.334 407.935C880.118 407.935 881.424 409.131 881.424 410.676V410.69C881.424 411.77 880.925 412.583 879.113 414.436L876.769 416.842V416.869H881.588V417.963H875.08ZM886.448 418.127C884.179 418.127 882.832 416.165 882.832 413.034V413.021C882.832 409.89 884.179 407.935 886.448 407.935C888.718 407.935 890.078 409.89 890.078 413.021V413.034C890.078 416.165 888.718 418.127 886.448 418.127ZM886.448 417.054C887.952 417.054 888.841 415.509 888.841 413.034V413.021C888.841 410.546 887.952 409.015 886.448 409.015C884.944 409.015 884.069 410.546 884.069 413.021V413.034C884.069 415.509 884.944 417.054 886.448 417.054ZM891.363 417.963V417.115L894.836 413.492C896.169 412.105 896.477 411.572 896.477 410.751V410.738C896.47 409.733 895.711 409.008 894.638 409.008C893.407 409.008 892.491 409.856 892.491 410.915V410.949H891.302V410.908C891.302 409.199 892.778 407.935 894.617 407.935C896.401 407.935 897.707 409.131 897.707 410.676V410.69C897.707 411.77 897.208 412.583 895.396 414.436L893.052 416.842V416.869H897.871V417.963H891.363ZM902.615 418.127C900.578 418.127 899.259 416.992 899.129 415.434L899.122 415.352H900.305L900.312 415.42C900.414 416.391 901.303 417.061 902.615 417.061C903.907 417.061 904.789 416.336 904.789 415.29V415.277C904.789 414.067 903.921 413.39 902.54 413.39H901.303V412.351H902.485C903.661 412.351 904.481 411.626 904.481 410.642V410.628C904.481 409.596 903.805 409.001 902.602 409.001C901.439 409.001 900.612 409.616 900.51 410.615L900.503 410.683H899.32L899.327 410.615C899.484 409.008 900.756 407.935 902.602 407.935C904.481 407.935 905.719 408.981 905.719 410.478V410.491C905.719 411.708 904.857 412.542 903.627 412.802V412.829C905.062 412.952 906.04 413.848 906.04 415.249V415.263C906.04 416.91 904.591 418.127 902.615 418.127Z" fill="#252322"/>
<path d="M11.6377 13.9631V11.9124H6.68164V10.7981L11.0088 4.09888H12.8271V10.8323H14.2217V11.9124H12.8271V13.9631H11.6377ZM7.89844 10.8323H11.6377V5.15161H11.5967L7.89844 10.8049V10.8323ZM18.8496 14.1272C16.5801 14.1272 15.2334 12.1653 15.2334 9.03442V9.02075C15.2334 5.88989 16.5801 3.93481 18.8496 3.93481C21.1191 3.93481 22.4795 5.88989 22.4795 9.02075V9.03442C22.4795 12.1653 21.1191 14.1272 18.8496 14.1272ZM18.8496 13.054C20.3535 13.054 21.2422 11.509 21.2422 9.03442V9.02075C21.2422 6.54614 20.3535 5.01489 18.8496 5.01489C17.3457 5.01489 16.4707 6.54614 16.4707 9.02075V9.03442C16.4707 11.509 17.3457 13.054 18.8496 13.054ZM27.3398 14.1272C25.0703 14.1272 23.7236 12.1653 23.7236 9.03442V9.02075C23.7236 5.88989 25.0703 3.93481 27.3398 3.93481C29.6094 3.93481 30.9697 5.88989 30.9697 9.02075V9.03442C30.9697 12.1653 29.6094 14.1272 27.3398 14.1272ZM27.3398 13.054C28.8438 13.054 29.7324 11.509 29.7324 9.03442V9.02075C29.7324 6.54614 28.8438 5.01489 27.3398 5.01489C25.8359 5.01489 24.9609 6.54614 24.9609 9.02075V9.03442C24.9609 11.509 25.8359 13.054 27.3398 13.054ZM32.5488 13.9631V4.09888H33.7793V8.93872H33.8203L38.0039 4.09888H39.5488L35.6934 8.46704L39.9111 13.9631H38.3389L34.832 9.35571L33.7793 10.511V13.9631H32.5488Z" fill="#252322"/>
<path d="M10.4482 60.1272C8.41113 60.1272 7.0918 58.9924 6.96191 57.4338L6.95508 57.3518H8.1377L8.14453 57.4202C8.24707 58.3909 9.13574 59.0608 10.4482 59.0608C11.7402 59.0608 12.6221 58.3362 12.6221 57.2903V57.2766C12.6221 56.0667 11.7539 55.3899 10.373 55.3899H9.13574V54.3508H10.3184C11.4941 54.3508 12.3145 53.6262 12.3145 52.6418V52.6282C12.3145 51.5959 11.6377 51.0012 10.4346 51.0012C9.27246 51.0012 8.44531 51.6165 8.34277 52.6145L8.33594 52.6829H7.15332L7.16016 52.6145C7.31738 51.0081 8.58887 49.9348 10.4346 49.9348C12.3145 49.9348 13.5518 50.9807 13.5518 52.4778V52.4915C13.5518 53.7083 12.6904 54.5422 11.46 54.802V54.8293C12.8955 54.9524 13.873 55.8479 13.873 57.2493V57.2629C13.873 58.9104 12.4238 60.1272 10.4482 60.1272ZM18.8496 60.1272C16.5801 60.1272 15.2334 58.1653 15.2334 55.0344V55.0208C15.2334 51.8899 16.5801 49.9348 18.8496 49.9348C21.1191 49.9348 22.4795 51.8899 22.4795 55.0208V55.0344C22.4795 58.1653 21.1191 60.1272 18.8496 60.1272ZM18.8496 59.054C20.3535 59.054 21.2422 57.509 21.2422 55.0344V55.0208C21.2422 52.5461 20.3535 51.0149 18.8496 51.0149C17.3457 51.0149 16.4707 52.5461 16.4707 55.0208V55.0344C16.4707 57.509 17.3457 59.054 18.8496 59.054ZM27.3398 60.1272C25.0703 60.1272 23.7236 58.1653 23.7236 55.0344V55.0208C23.7236 51.8899 25.0703 49.9348 27.3398 49.9348C29.6094 49.9348 30.9697 51.8899 30.9697 55.0208V55.0344C30.9697 58.1653 29.6094 60.1272 27.3398 60.1272ZM27.3398 59.054C28.8438 59.054 29.7324 57.509 29.7324 55.0344V55.0208C29.7324 52.5461 28.8438 51.0149 27.3398 51.0149C25.8359 51.0149 24.9609 52.5461 24.9609 55.0208V55.0344C24.9609 57.509 25.8359 59.054 27.3398 59.054ZM32.5488 59.9631V50.0989H33.7793V54.9387H33.8203L38.0039 50.0989H39.5488L35.6934 54.467L39.9111 59.9631H38.3389L34.832 55.3557L33.7793 56.511V59.9631H32.5488Z" fill="#252322"/>
<path d="M7.48145 105.963V105.115L10.9541 101.492C12.2871 100.105 12.5947 99.5715 12.5947 98.7512V98.7375C12.5879 97.7327 11.8291 97.0081 10.7559 97.0081C9.52539 97.0081 8.60938 97.8557 8.60938 98.9153V98.9495H7.41992V98.9084C7.41992 97.1995 8.89648 95.9348 10.7354 95.9348C12.5195 95.9348 13.8252 97.1311 13.8252 98.676V98.6897C13.8252 99.7698 13.3262 100.583 11.5146 102.436L9.16992 104.842V104.869H13.9893V105.963H7.48145ZM18.8496 106.127C16.5801 106.127 15.2334 104.165 15.2334 101.034V101.021C15.2334 97.8899 16.5801 95.9348 18.8496 95.9348C21.1191 95.9348 22.4795 97.8899 22.4795 101.021V101.034C22.4795 104.165 21.1191 106.127 18.8496 106.127ZM18.8496 105.054C20.3535 105.054 21.2422 103.509 21.2422 101.034V101.021C21.2422 98.5461 20.3535 97.0149 18.8496 97.0149C17.3457 97.0149 16.4707 98.5461 16.4707 101.021V101.034C16.4707 103.509 17.3457 105.054 18.8496 105.054ZM27.3398 106.127C25.0703 106.127 23.7236 104.165 23.7236 101.034V101.021C23.7236 97.8899 25.0703 95.9348 27.3398 95.9348C29.6094 95.9348 30.9697 97.8899 30.9697 101.021V101.034C30.9697 104.165 29.6094 106.127 27.3398 106.127ZM27.3398 105.054C28.8438 105.054 29.7324 103.509 29.7324 101.034V101.021C29.7324 98.5461 28.8438 97.0149 27.3398 97.0149C25.8359 97.0149 24.9609 98.5461 24.9609 101.021V101.034C24.9609 103.509 25.8359 105.054 27.3398 105.054ZM32.5488 105.963V96.0989H33.7793V100.939H33.8203L38.0039 96.0989H39.5488L35.6934 100.467L39.9111 105.963H38.3389L34.832 101.356L33.7793 102.511V105.963H32.5488Z" fill="#252322"/>
<path d="M11.7197 151.963V143.405H11.6924L9.08105 145.223V143.986L11.7061 142.099H12.9092V151.963H11.7197ZM18.8496 152.127C16.5801 152.127 15.2334 150.165 15.2334 147.034V147.021C15.2334 143.89 16.5801 141.935 18.8496 141.935C21.1191 141.935 22.4795 143.89 22.4795 147.021V147.034C22.4795 150.165 21.1191 152.127 18.8496 152.127ZM18.8496 151.054C20.3535 151.054 21.2422 149.509 21.2422 147.034V147.021C21.2422 144.546 20.3535 143.015 18.8496 143.015C17.3457 143.015 16.4707 144.546 16.4707 147.021V147.034C16.4707 149.509 17.3457 151.054 18.8496 151.054ZM27.3398 152.127C25.0703 152.127 23.7236 150.165 23.7236 147.034V147.021C23.7236 143.89 25.0703 141.935 27.3398 141.935C29.6094 141.935 30.9697 143.89 30.9697 147.021V147.034C30.9697 150.165 29.6094 152.127 27.3398 152.127ZM27.3398 151.054C28.8438 151.054 29.7324 149.509 29.7324 147.034V147.021C29.7324 144.546 28.8438 143.015 27.3398 143.015C25.8359 143.015 24.9609 144.546 24.9609 147.021V147.034C24.9609 149.509 25.8359 151.054 27.3398 151.054ZM32.5488 151.963V142.099H33.7793V146.939H33.8203L38.0039 142.099H39.5488L35.6934 146.467L39.9111 151.963H38.3389L34.832 147.356L33.7793 148.511V151.963H32.5488Z" fill="#252322"/>
<path d="M25.2383 198.127C22.9688 198.127 21.6221 196.165 21.6221 193.034V193.021C21.6221 189.89 22.9688 187.935 25.2383 187.935C27.5078 187.935 28.8682 189.89 28.8682 193.021V193.034C28.8682 196.165 27.5078 198.127 25.2383 198.127ZM25.2383 197.054C26.7422 197.054 27.6309 195.509 27.6309 193.034V193.021C27.6309 190.546 26.7422 189.015 25.2383 189.015C23.7344 189.015 22.8594 190.546 22.8594 193.021V193.034C22.8594 195.509 23.7344 197.054 25.2383 197.054ZM30.4473 197.963V188.099H31.6777V192.939H31.7188L35.9023 188.099H37.4473L33.5918 192.467L37.8096 197.963H36.2373L32.7305 193.356L31.6777 194.511V197.963H30.4473Z" fill="#252322"/>
<path d="M3.62598 240.518V239.41H8.00098V240.518H3.62598ZM11.7197 243.963V235.405H11.6924L9.08105 237.223V235.986L11.7061 234.099H12.9092V243.963H11.7197ZM18.8496 244.127C16.5801 244.127 15.2334 242.165 15.2334 239.034V239.021C15.2334 235.89 16.5801 233.935 18.8496 233.935C21.1191 233.935 22.4795 235.89 22.4795 239.021V239.034C22.4795 242.165 21.1191 244.127 18.8496 244.127ZM18.8496 243.054C20.3535 243.054 21.2422 241.509 21.2422 239.034V239.021C21.2422 236.546 20.3535 235.015 18.8496 235.015C17.3457 235.015 16.4707 236.546 16.4707 239.021V239.034C16.4707 241.509 17.3457 243.054 18.8496 243.054ZM27.3398 244.127C25.0703 244.127 23.7236 242.165 23.7236 239.034V239.021C23.7236 235.89 25.0703 233.935 27.3398 233.935C29.6094 233.935 30.9697 235.89 30.9697 239.021V239.034C30.9697 242.165 29.6094 244.127 27.3398 244.127ZM27.3398 243.054C28.8438 243.054 29.7324 241.509 29.7324 239.034V239.021C29.7324 236.546 28.8438 235.015 27.3398 235.015C25.8359 235.015 24.9609 236.546 24.9609 239.021V239.034C24.9609 241.509 25.8359 243.054 27.3398 243.054ZM32.5488 243.963V234.099H33.7793V238.939H33.8203L38.0039 234.099H39.5488L35.6934 238.467L39.9111 243.963H38.3389L34.832 239.356L33.7793 240.511V243.963H32.5488Z" fill="#252322"/>
<path d="M1.49316 286.518V285.41H5.86816V286.518H1.49316ZM7.48145 289.963V289.115L10.9541 285.492C12.2871 284.105 12.5947 283.572 12.5947 282.751V282.738C12.5879 281.733 11.8291 281.008 10.7559 281.008C9.52539 281.008 8.60938 281.856 8.60938 282.915V282.949H7.41992V282.908C7.41992 281.199 8.89648 279.935 10.7354 279.935C12.5195 279.935 13.8252 281.131 13.8252 282.676V282.69C13.8252 283.77 13.3262 284.583 11.5146 286.436L9.16992 288.842V288.869H13.9893V289.963H7.48145ZM18.8496 290.127C16.5801 290.127 15.2334 288.165 15.2334 285.034V285.021C15.2334 281.89 16.5801 279.935 18.8496 279.935C21.1191 279.935 22.4795 281.89 22.4795 285.021V285.034C22.4795 288.165 21.1191 290.127 18.8496 290.127ZM18.8496 289.054C20.3535 289.054 21.2422 287.509 21.2422 285.034V285.021C21.2422 282.546 20.3535 281.015 18.8496 281.015C17.3457 281.015 16.4707 282.546 16.4707 285.021V285.034C16.4707 287.509 17.3457 289.054 18.8496 289.054ZM27.3398 290.127C25.0703 290.127 23.7236 288.165 23.7236 285.034V285.021C23.7236 281.89 25.0703 279.935 27.3398 279.935C29.6094 279.935 30.9697 281.89 30.9697 285.021V285.034C30.9697 288.165 29.6094 290.127 27.3398 290.127ZM27.3398 289.054C28.8438 289.054 29.7324 287.509 29.7324 285.034V285.021C29.7324 282.546 28.8438 281.015 27.3398 281.015C25.8359 281.015 24.9609 282.546 24.9609 285.021V285.034C24.9609 287.509 25.8359 289.054 27.3398 289.054ZM32.5488 289.963V280.099H33.7793V284.939H33.8203L38.0039 280.099H39.5488L35.6934 284.467L39.9111 289.963H38.3389L34.832 285.356L33.7793 286.511V289.963H32.5488Z" fill="#252322"/>
<path d="M1.1377 332.518V331.41H5.5127V332.518H1.1377ZM10.4482 336.127C8.41113 336.127 7.0918 334.992 6.96191 333.434L6.95508 333.352H8.1377L8.14453 333.42C8.24707 334.391 9.13574 335.061 10.4482 335.061C11.7402 335.061 12.6221 334.336 12.6221 333.29V333.277C12.6221 332.067 11.7539 331.39 10.373 331.39H9.13574V330.351H10.3184C11.4941 330.351 12.3145 329.626 12.3145 328.642V328.628C12.3145 327.596 11.6377 327.001 10.4346 327.001C9.27246 327.001 8.44531 327.616 8.34277 328.615L8.33594 328.683H7.15332L7.16016 328.615C7.31738 327.008 8.58887 325.935 10.4346 325.935C12.3145 325.935 13.5518 326.981 13.5518 328.478V328.491C13.5518 329.708 12.6904 330.542 11.46 330.802V330.829C12.8955 330.952 13.873 331.848 13.873 333.249V333.263C13.873 334.91 12.4238 336.127 10.4482 336.127ZM18.8496 336.127C16.5801 336.127 15.2334 334.165 15.2334 331.034V331.021C15.2334 327.89 16.5801 325.935 18.8496 325.935C21.1191 325.935 22.4795 327.89 22.4795 331.021V331.034C22.4795 334.165 21.1191 336.127 18.8496 336.127ZM18.8496 335.054C20.3535 335.054 21.2422 333.509 21.2422 331.034V331.021C21.2422 328.546 20.3535 327.015 18.8496 327.015C17.3457 327.015 16.4707 328.546 16.4707 331.021V331.034C16.4707 333.509 17.3457 335.054 18.8496 335.054ZM27.3398 336.127C25.0703 336.127 23.7236 334.165 23.7236 331.034V331.021C23.7236 327.89 25.0703 325.935 27.3398 325.935C29.6094 325.935 30.9697 327.89 30.9697 331.021V331.034C30.9697 334.165 29.6094 336.127 27.3398 336.127ZM27.3398 335.054C28.8438 335.054 29.7324 333.509 29.7324 331.034V331.021C29.7324 328.546 28.8438 327.015 27.3398 327.015C25.8359 327.015 24.9609 328.546 24.9609 331.021V331.034C24.9609 333.509 25.8359 335.054 27.3398 335.054ZM32.5488 335.963V326.099H33.7793V330.939H33.8203L38.0039 326.099H39.5488L35.6934 330.467L39.9111 335.963H38.3389L34.832 331.356L33.7793 332.511V335.963H32.5488Z" fill="#252322"/>
<path d="M0.959961 378.518V377.41H5.33496V378.518H0.959961ZM11.6377 381.963V379.912H6.68164V378.798L11.0088 372.099H12.8271V378.832H14.2217V379.912H12.8271V381.963H11.6377ZM7.89844 378.832H11.6377V373.152H11.5967L7.89844 378.805V378.832ZM18.8496 382.127C16.5801 382.127 15.2334 380.165 15.2334 377.034V377.021C15.2334 373.89 16.5801 371.935 18.8496 371.935C21.1191 371.935 22.4795 373.89 22.4795 377.021V377.034C22.4795 380.165 21.1191 382.127 18.8496 382.127ZM18.8496 381.054C20.3535 381.054 21.2422 379.509 21.2422 377.034V377.021C21.2422 374.546 20.3535 373.015 18.8496 373.015C17.3457 373.015 16.4707 374.546 16.4707 377.021V377.034C16.4707 379.509 17.3457 381.054 18.8496 381.054ZM27.3398 382.127C25.0703 382.127 23.7236 380.165 23.7236 377.034V377.021C23.7236 373.89 25.0703 371.935 27.3398 371.935C29.6094 371.935 30.9697 373.89 30.9697 377.021V377.034C30.9697 380.165 29.6094 382.127 27.3398 382.127ZM27.3398 381.054C28.8438 381.054 29.7324 379.509 29.7324 377.034V377.021C29.7324 374.546 28.8438 373.015 27.3398 373.015C25.8359 373.015 24.9609 374.546 24.9609 377.021V377.034C24.9609 379.509 25.8359 381.054 27.3398 381.054ZM32.5488 381.963V372.099H33.7793V376.939H33.8203L38.0039 372.099H39.5488L35.6934 376.467L39.9111 381.963H38.3389L34.832 377.356L33.7793 378.511V381.963H32.5488Z" fill="#252322"/>
<path d="M879.166 77.9493C879.71 77.8578 880.078 77.3421 879.986 76.7975C879.895 76.2528 879.379 75.8855 878.834 75.977L879.166 77.9493ZM123.166 204.949L879.166 77.9493L878.834 75.977L122.834 202.977L123.166 204.949Z" fill="#5CCD81"/>
<circle cx="126" cy="203.963" r="6" fill="#38CD69"/>
<circle cx="251" cy="181.963" r="6" fill="#38CD69"/>
<circle cx="376" cy="160.963" r="6" fill="#38CD69"/>
<circle cx="501" cy="139.963" r="6" fill="#38CD69"/>
<circle cx="627" cy="119.963" r="6" fill="#38CD69"/>
<circle cx="752" cy="99.9631" r="6" fill="#38CD69"/>
<circle cx="879" cy="76.9631" r="6" fill="#38CD69"/>
</svg>
