<svg width="45" height="45" viewBox="0 0 45 45" fill="none" xmlns="http://www.w3.org/2000/svg">
<path d="M15.2062 20.0626L20.1562 17.5876C20.8312 17.2501 21.5062 16.3501 21.6187 15.6001L22.3687 11.1188C22.8562 8.25005 24.9187 7.57509 26.9812 9.63759L30.4687 13.1251C31.05 13.7063 32.1937 14.0438 33.0187 13.8563L37.35 12.8625C40.7625 12.075 42.0937 13.8938 40.3125 16.9125L37.8187 21.1126C37.3687 21.8813 37.3687 23.1188 37.8187 23.8875L40.3125 28.0876C42.0937 31.1063 40.7625 32.9251 37.35 32.1376L33.0188 31.1438C32.2125 30.9563 31.0687 31.2938 30.4687 31.8751L26.9812 35.3625C24.9187 37.425 22.8375 36.7501 22.3687 33.8813L21.6187 29.4C21.4875 28.65 20.8312 27.7501 20.1562 27.4126L15.2062 24.9375C12.525 23.6063 12.525 21.3938 15.2062 20.0626Z" stroke="#333333" stroke-width="1.5" stroke-linecap="round" stroke-linejoin="round"/>
<path d="M16.875 33.75L3.75 33.75" stroke="#333333" stroke-width="1.5" stroke-linecap="round" stroke-linejoin="round"/>
<path d="M16.875 11.25L3.75 11.25" stroke="#333333" stroke-width="1.5" stroke-linecap="round" stroke-linejoin="round"/>
<path d="M7.5 22.5L3.75 22.5" stroke="#333333" stroke-width="1.5" stroke-linecap="round" stroke-linejoin="round"/>
</svg>
