<svg width="67" height="67" viewBox="0 0 67 67" fill="none" xmlns="http://www.w3.org/2000/svg">
<path d="M58.3738 31.0433C58.3738 44.6945 48.4634 57.4804 34.9238 61.2212C34.0025 61.4725 32.9975 61.4725 32.0762 61.2212C18.5367 57.4804 8.62625 44.6945 8.62625 31.0433V18.7878C8.62625 16.4987 10.3571 13.9024 12.5067 13.037L28.0562 6.67211C31.5458 5.24836 35.4821 5.24836 38.9717 6.67211L54.5213 13.037C56.6429 13.9024 58.4017 16.4987 58.4017 18.7878L58.3738 31.0433Z" stroke="#252322" stroke-width="4.1875" stroke-linecap="round" stroke-linejoin="round"/>
<path d="M33.5 34.8958C36.5836 34.8958 39.0833 32.3961 39.0833 29.3125C39.0833 26.2289 36.5836 23.7292 33.5 23.7292C30.4164 23.7292 27.9167 26.2289 27.9167 29.3125C27.9167 32.3961 30.4164 34.8958 33.5 34.8958Z" stroke="#252322" stroke-width="4.1875" stroke-miterlimit="10" stroke-linecap="round" stroke-linejoin="round"/>
<path d="M33.5 34.8958V43.2708" stroke="#252322" stroke-width="4.1875" stroke-miterlimit="10" stroke-linecap="round" stroke-linejoin="round"/>
</svg>
