<svg width="61" height="48" viewBox="0 0 61 48" fill="none" xmlns="http://www.w3.org/2000/svg">
<path fill-rule="evenodd" clip-rule="evenodd" d="M57.9561 47.5638C57.9561 47.5638 61.8304 47.5638 61.8304 43.6546C61.8304 39.7454 57.9561 28.0179 42.459 28.0179C26.9619 28.0179 23.0877 39.7454 23.0877 43.6546C23.0877 47.5638 26.9619 47.5638 26.9619 47.5638H57.9561ZM27.0472 43.6546H57.8709C57.889 43.6524 57.9071 43.6498 57.9251 43.6468L57.9561 43.6389C57.9484 42.6069 57.3091 39.6125 55.0117 36.9152C52.8731 34.3859 49.115 31.927 42.459 31.927C35.8069 31.927 32.0489 34.3898 29.9064 36.9152C27.6089 39.6125 26.9658 42.6108 26.9619 43.6389C26.9903 43.6445 27.0187 43.6497 27.0472 43.6546V43.6546ZM42.459 20.1995C44.5141 20.1995 46.485 19.3758 47.9381 17.9096C49.3912 16.4433 50.2076 14.4547 50.2076 12.3811C50.2076 10.3076 49.3912 8.31896 47.9381 6.85273C46.485 5.38651 44.5141 4.56279 42.459 4.56279C40.404 4.56279 38.4331 5.38651 36.98 6.85273C35.5269 8.31896 34.7105 10.3076 34.7105 12.3811C34.7105 14.4547 35.5269 16.4433 36.98 17.9096C38.4331 19.3758 40.404 20.1995 42.459 20.1995ZM54.0819 12.3811C54.0819 13.9212 53.7812 15.4462 53.1971 16.8691C52.613 18.2919 51.7569 19.5848 50.6776 20.6738C49.5983 21.7628 48.317 22.6266 46.9069 23.216C45.4968 23.8053 43.9854 24.1087 42.459 24.1087C40.9327 24.1087 39.4213 23.8053 38.0112 23.216C36.601 22.6266 35.3197 21.7628 34.2405 20.6738C33.1612 19.5848 32.305 18.2919 31.7209 16.8691C31.1368 15.4462 30.8362 13.9212 30.8362 12.3811C30.8362 9.27081 32.0608 6.28787 34.2405 4.08853C36.4202 1.88919 39.3765 0.65361 42.459 0.65361C45.5416 0.65361 48.4979 1.88919 50.6776 4.08853C52.8573 6.28787 54.0819 9.27081 54.0819 12.3811V12.3811ZM26.714 29.1124C25.1642 28.62 23.5667 28.2963 21.9486 28.1469C21.0395 28.0596 20.1267 28.0166 19.2134 28.0179C3.71629 28.0179 -0.15799 39.7454 -0.15799 43.6546C-0.15799 46.262 1.13214 47.5638 3.71629 47.5638H20.0502C19.4759 46.3434 19.1895 45.0054 19.2134 43.6546C19.2134 39.7063 20.674 35.672 23.4363 32.3023C24.3778 31.153 25.4742 30.078 26.714 29.1124ZM18.9034 31.927C12.4412 32.0052 8.77221 34.4289 6.66073 36.9152C4.34779 39.6281 3.71629 42.6343 3.71629 43.6546H15.3391C15.3391 39.5695 16.5905 35.5 18.9034 31.927ZM5.65342 14.3357C5.65342 11.2254 6.87797 8.24246 9.05767 6.04312C11.2374 3.84378 14.1937 2.6082 17.2762 2.6082C20.3588 2.6082 23.3151 3.84378 25.4948 6.04312C27.6745 8.24246 28.8991 11.2254 28.8991 14.3357C28.8991 17.4461 27.6745 20.429 25.4948 22.6284C23.3151 24.8277 20.3588 26.0633 17.2762 26.0633C14.1937 26.0633 11.2374 24.8277 9.05767 22.6284C6.87797 20.429 5.65342 17.4461 5.65342 14.3357V14.3357ZM17.2762 6.51738C15.2212 6.51738 13.2503 7.3411 11.7972 8.80732C10.3441 10.2735 9.5277 12.2622 9.5277 14.3357C9.5277 16.4093 10.3441 18.3979 11.7972 19.8641C13.2503 21.3304 15.2212 22.1541 17.2762 22.1541C19.3313 22.1541 21.3022 21.3304 22.7553 19.8641C24.2084 18.3979 25.0248 16.4093 25.0248 14.3357C25.0248 12.2622 24.2084 10.2735 22.7553 8.80732C21.3022 7.3411 19.3313 6.51738 17.2762 6.51738Z" fill="#252322"/>
</svg>
